PathFileType	4	(X/Y/Z)	D:\TRACE\spot_10-12-23\spot_arm_body_motion_1_8-platform.trc
DataRate	CameraRate	NumFrames	NumMarkers	Units	OrigDataRate	OrigDataStartFrame	OrigNumFrames
100.00	100.00	      61	5	mm	100.00	6126	      7000
Frame#	Time	Left_Front			Right_Front			Left_Aft			Right_Aft			Post			
		X1	Y1	Z1	X2	Y2	Z2	X3	Y3	Z3	X4	Y4	Z4	X5	Y5	Z5	

6126	61.250	-737.93323	6.68036	-652.20801	829.51190	4.87206	-627.69934	-669.37262	14.85797	486.29929	737.81085	14.03507	588.45740	49.82051	732.55762	-967.62750	
6127	61.260	-737.37427	6.35885	-652.20447	829.94672	4.70584	-627.80676	-668.71497	15.06054	486.16449	738.20569	14.23469	588.13330	50.51445	731.98834	-968.01593	
6128	61.270	-736.78900	5.96632	-652.37207	830.43958	4.37793	-627.87939	-668.23022	15.36383	486.06369	738.78906	14.61125	588.23883	50.86148	731.70056	-968.39435	
6129	61.280	-736.28082	5.54160	-652.47845	830.95685	4.05137	-627.92682	-667.70966	15.76732	485.99634	739.44958	15.10895	588.19067	51.53207	731.12280	-969.10748	
6130	61.290	-735.92877	5.04491	-652.45410	831.47137	3.60601	-628.04938	-667.28998	15.97480	485.89938	739.87823	15.36674	588.13232	51.90033	730.37921	-969.51001	
6131	61.300	-735.65601	4.75446	-652.55365	831.84583	3.22407	-628.17328	-666.92865	16.10169	485.85062	740.18817	15.54690	588.05139	52.19735	729.88177	-969.91284	
6132	61.310	-735.16058	4.43077	-652.67511	832.15350	2.96989	-628.28271	-666.66144	16.28683	485.84061	740.57965	15.82023	588.03900	52.85571	729.31097	-970.62390	
6133	61.320	-734.70160	4.16430	-652.84430	832.54858	2.68234	-628.37115	-666.07910	16.74285	485.71356	740.93781	16.07540	587.92456	53.13956	728.74127	-971.05457	
6134	61.330	-734.27277	3.85414	-652.95172	832.95184	2.41634	-628.45715	-665.76611	17.06419	485.66901	741.27643	16.48632	587.78400	53.28545	728.28021	-971.78046	
6135	61.340	-734.09503	3.48702	-652.99939	833.23468	1.99866	-628.53320	-665.60590	17.27483	485.52237	741.59393	16.79065	587.72333	53.52822	727.79095	-972.52838	
6136	61.350	-733.95978	3.07686	-652.96326	833.33997	1.60763	-628.57489	-665.41949	17.43110	485.43384	741.78802	16.99283	587.67670	53.71214	727.21655	-972.93671	
6137	61.360	-733.37378	2.47574	-653.23706	833.56122	1.11093	-628.68878	-665.12610	17.57454	485.27823	742.08685	17.27057	587.59711	53.95705	726.42865	-973.39221	
6138	61.370	-732.99188	2.11021	-653.31512	833.91650	0.69394	-628.79303	-664.75055	17.84821	485.21719	742.44385	17.63348	587.54272	54.15790	726.04755	-973.82642	
6139	61.380	-733.03638	1.93511	-653.18024	834.18323	0.39574	-628.87323	-664.39545	18.10888	485.15320	742.56946	17.98460	587.21851	54.64000	725.53601	-974.30469	
6140	61.390	-732.82556	1.51856	-653.29315	834.33191	0.05688	-628.93988	-664.22815	18.33840	485.03488	742.67993	18.22908	587.29688	54.68685	725.04517	-974.79425	
6141	61.400	-732.78448	1.18184	-653.37140	834.38214	-0.28703	-628.97711	-664.20868	18.52902	484.84097	742.84753	18.43559	587.21844	54.89145	724.45819	-975.03137	
6142	61.410	-732.81995	0.68527	-653.43420	834.42047	-0.67536	-629.10382	-664.21680	18.71179	484.74203	742.87817	18.66959	587.15277	54.97495	723.95563	-975.29919	
6143	61.420	-732.78918	0.22364	-653.50037	834.52124	-1.07098	-629.24432	-664.14221	18.93069	484.64734	742.94501	18.92768	587.06781	55.08138	723.26758	-975.65350	
6144	61.430	-732.68182	-0.04811	-653.63629	834.64001	-1.33609	-629.31793	-664.05914	19.25795	484.60706	743.10632	19.36677	586.96307	55.26114	722.97021	-976.28900	
6145	61.440	-732.59039	-0.30669	-653.70795	834.66223	-1.56893	-629.41199	-664.02795	19.63111	484.56372	743.27325	19.68842	586.88354	55.27448	722.53967	-976.58740	
6146	61.450	-732.35590	-0.73235	-653.96411	834.65839	-1.86228	-629.44708	-664.05603	19.85506	484.50699	743.27435	19.89351	586.83270	55.24055	721.93903	-976.96661	
6147	61.460	-732.58923	-0.91947	-653.86572	834.62970	-2.25694	-629.41144	-664.10236	20.01641	484.40619	743.23358	20.05912	586.75110	55.03162	721.45752	-977.45636	
6148	61.470	-732.64325	-1.27555	-654.00165	834.60773	-2.71348	-629.40955	-664.14319	20.25481	484.32278	743.20648	20.29624	586.68359	54.88186	720.86078	-977.84509	
6149	61.480	-732.62683	-1.49320	-654.09296	834.64099	-3.06830	-629.53619	-664.03021	20.51066	484.21255	743.23926	20.70634	586.67456	55.08914	720.34521	-978.36169	
6150	61.490	-732.59924	-1.73158	-654.21753	834.67938	-3.40676	-629.64532	-663.89282	20.80464	484.08212	743.22803	21.10700	586.70477	55.40568	719.81909	-978.86182	
6151	61.500	-732.57928	-2.17047	-654.28418	834.63849	-3.74400	-629.71515	-663.91455	21.04199	484.01044	743.26978	21.42320	586.68677	55.21096	719.51459	-979.40686	
6152	61.510	-732.65619	-2.65017	-654.31207	834.65161	-4.13624	-629.83966	-663.95172	21.19700	483.97980	743.24182	21.71022	586.65192	55.20670	718.78864	-979.74786	
6153	61.520	-732.69861	-3.15529	-654.36493	834.68085	-4.50549	-629.95105	-663.93372	21.35841	483.88910	743.32971	21.99357	586.58948	55.34790	718.13855	-980.24072	
6154	61.530	-732.77209	-3.46748	-654.42346	834.61255	-4.79202	-629.99335	-663.99988	21.65417	483.78342	743.37439	22.30107	586.61853	55.34939	717.70068	-980.85388	
6155	61.540	-732.91138	-3.73090	-654.45850	834.45917	-5.00516	-630.00568	-664.21399	21.99128	483.65475	743.09308	22.25151	586.39539	55.02897	717.32379	-981.42719	
6156	61.550	-733.15210	-4.07672	-654.56592	834.20331	-5.29581	-630.10620	-664.54053	22.22570	483.55362	742.94904	22.61871	586.42639	54.66771	716.66412	-981.92328	
6157	61.560	-733.43915	-4.42795	-654.64526	833.83575	-5.78088	-630.22443	-664.95630	22.55966	483.49197	742.98389	23.00441	586.24768	54.40754	716.09259	-982.26373	
6158	61.570	-733.64099	-4.83718	-654.68256	833.57916	-6.27556	-630.25446	-665.12543	22.56752	483.45883	741.86371	23.05586	585.49792	53.97112	715.69806	-982.64337	
6159	61.580	-733.78400	-5.24049	-654.73730	833.39740	-6.60728	-630.23486	-665.34033	22.75796	483.42056	741.65112	23.30005	585.38916	56.39342	713.93524	-984.24115	
6160	61.590	-733.96765	-5.61911	-654.89063	833.29248	-6.86819	-630.28992	-665.54962	22.91750	483.29730	741.50104	23.63373	585.31171	53.74857	714.52875	-983.35889	
6161	61.600	-734.19751	-5.92545	-654.94836	833.03424	-7.14046	-630.40411	-665.82684	23.24404	483.18579	740.99402	23.79994	584.86456	53.37125	714.04132	-984.01068	
6162	61.610	-734.21326	-6.52873	-655.24176	832.72870	-7.44584	-630.49554	-666.09113	23.55745	483.08966	740.86829	24.08397	585.19012	53.24758	713.67230	-984.47607	
6163	61.620	-734.87585	-6.51056	-655.02838	832.33374	-7.80258	-630.57190	-666.40765	23.79158	483.00562	740.53845	24.33299	585.05792	53.21047	713.13538	-984.64722	
6164	61.630	-735.31207	-6.72921	-655.15802	831.78223	-8.31392	-630.68817	-666.79572	24.01256	482.88150	740.21155	24.54794	584.98627	52.57917	712.53479	-985.19586	
6165	61.640	-735.86426	-7.07868	-655.30310	831.54730	-8.30666	-630.76770	-667.30750	24.31851	482.87549	739.86926	24.73887	584.85779	52.37035	712.13831	-985.53534	
6166	61.650	-736.16400	-7.49296	-655.36017	831.13287	-8.62478	-630.91534	-667.47375	24.38847	482.82010	739.38745	25.10064	584.70630	-25.01734	684.72089	-1008.37903	
6167	61.660	-736.39771	-7.81110	-655.36841	830.72388	-8.96844	-630.99103	-667.74030	24.53546	482.75607	739.02869	25.41763	584.59467	51.18803	711.47681	-986.44635	
6168	61.670	-736.84534	-8.10851	-655.41162	830.37054	-9.34573	-631.01630	-668.11194	24.69039	482.64453	738.66479	25.65479	584.54187	50.92287	710.88538	-986.84827	
6169	61.680	-737.25952	-8.55777	-655.49951	829.99268	-9.68237	-631.00220	-668.64105	24.80680	482.60880	738.28528	25.86054	584.47028	50.59311	710.27954	-987.16882	
6170	61.690	-737.71692	-8.79898	-655.60510	829.66016	-9.91466	-631.07245	-669.16156	25.14215	482.44598	737.78772	26.09308	584.42084	50.36768	709.85840	-987.34045	
6171	61.700	-737.81958	-9.14108	-655.86053	829.27405	-10.18092	-631.14368	-669.70288	25.50027	482.30832	737.35370	26.29158	584.42169	49.65628	709.46857	-987.95709	
6172	61.710	-738.54205	-9.13155	-655.67017	828.88770	-10.43100	-631.06842	-670.03961	25.67215	482.27618	736.84985	26.52856	584.34082	84.37775	698.12531	-1000.32306	
6173	61.720	-739.11023	-9.30358	-655.75208	828.54254	-10.58576	-631.00403	-670.31323	25.78115	482.24643	736.39685	26.73501	584.27618	75.06420	700.43884	-997.59570	
6174	61.730	-739.75317	-9.58726	-655.89160	828.07129	-10.80512	-631.00928	-670.83258	25.94750	482.12735	735.99640	26.98901	584.20807	48.42194	708.13751	-988.99310	
6175	61.740	-740.27081	-10.03518	-655.99066	827.48120	-11.28655	-631.14624	-671.46918	26.06388	481.96896	735.55865	27.20372	584.17780	47.85036	707.69952	-989.39148	
6176	61.750	-740.57538	-10.40065	-655.95984	827.00739	-11.65041	-631.23456	-672.03210	26.22223	481.89618	735.00311	27.39203	584.00317	47.32042	707.34601	-989.82098	
6177	61.760	-741.03564	-10.68424	-656.01031	826.54498	-11.90954	-631.26190	-672.51727	26.41179	481.86160	734.39850	27.59641	583.90601	46.82920	707.00421	-990.19421	
6178	61.770	-741.48987	-11.06280	-655.99347	826.06293	-12.14844	-631.16193	-673.05389	26.78854	481.79852	733.93488	27.75374	583.84277	46.32809	706.56653	-990.51251	
6179	61.780	-742.07214	-11.35971	-656.02716	825.49335	-12.34491	-631.34253	-673.57654	26.94879	481.77707	733.37878	27.89680	583.80487	45.89731	706.12097	-990.78717	
6180	61.790	-742.64526	-11.59869	-656.00836	824.71881	-12.71698	-631.62897	-674.25720	27.01757	481.78708	732.73267	28.11580	583.70129	45.37729	705.72131	-991.13635	
6181	61.800	-743.28430	-11.64770	-656.22247	823.96320	-13.02152	-631.90771	-674.65833	27.19974	481.63220	732.17877	28.26426	583.57068	44.58632	705.45587	-991.54187	
6182	61.810	-743.81525	-11.92235	-656.42902	823.54675	-13.21995	-631.93372	-675.17395	27.29256	481.54681	731.68781	28.49824	583.46075	44.08789	705.23596	-991.77356	
6183	61.820	-744.45764	-12.20999	-656.49402	823.00415	-13.45566	-631.89783	-675.67377	27.43472	481.45114	731.08606	28.65999	583.41309	43.52209	704.76324	-991.99036	
6184	61.830	-744.79626	-12.52380	-656.62402	822.26819	-13.88153	-631.89813	-676.33582	27.55653	481.35333	730.52844	28.78336	583.38202	42.94408	704.50861	-992.15320	
6185	61.840	-745.74170	-12.35430	-656.33081	821.65961	-13.88605	-631.93256	-677.03656	27.68564	481.22412	729.95276	28.98531	583.36298	42.28981	704.11554	-992.43262	
6186	61.850	-746.26611	-12.62651	-656.34332	821.04987	-14.10036	-631.93494	-677.62042	27.93072	481.18033	729.25073	29.12935	583.28040	41.60061	703.91315	-992.72797	
